 <svg  version="1.0" xmlns="http://www.w3.org/2000/svg"  width="900.000000pt" height="474.000000pt" viewBox="0 0 900.000000 474.000000"  preserveAspectRatio="xMidYMid meet">  <g transform="translate(0.000000,474.000000) scale(0.100000,-0.100000)" fill="#fd8c22" stroke="none"> <path d="M5600 4329 c-125 -17 -188 -28 -240 -43 -77 -21 -143 -46 -154 -57 -6 -5 -16 -9 -23 -9 -36 0 -248 -147 -346 -239 -44 -42 -167 -193 -167 -205 0 -3 -13 -25 -30 -49 -16 -25 -30 -52 -30 -60 0 -8 -7 -20 -15 -27 -8 -7 -15 -19 -15 -27 0 -8 -6 -27 -14 -41 -19 -37 -36 -90 -46 -137 -5 -22 -13 -52 -19 -66 -12 -34 -26 -230 -17 -263 6 -23 12 -26 49 -26 59 0 71 21 77 140 6 91 18 155 45 230 26 71 47 125 56 140 4 8 21 39 36 69 15 29 38 63 50 75 13 11 23 26 23 32 0 29 208 221 305 282 41 25 162 82 176 82 8 0 20 5 26 11 24 24 314 75 378 66 76 -11 117 66 59 112 -28 22 -62 24 -164 10z"/> <path d="M5510 3966 c-19 -7 -53 -19 -75 -26 -43 -13 -121 -46 -145 -61 -8 -5 -22 -12 -30 -16 -38 -17 -130 -85 -178 -133 -106 -105 -204 -259 -240 -380 -20 -66 -40 -251 -31 -277 6 -17 16 -23 38 -23 46 0 61 30 61 120 0 106 49 247 125 359 140 205 396 349 625 351 75 0 114 16 118 48 7 45 -12 52 -127 51 -61 0 -121 -6 -141 -13z"/> <path d="M5571 3658 c-92 -13 -203 -70 -273 -141 -57 -57 -148 -197 -148 -227 0 -9 -7 -43 -15 -75 -20 -74 -14 -105 20 -105 31 0 41 19 49 99 15 134 127 279 270 349 54 26 77 32 134 32 72 0 92 10 92 46 0 35 -17 38 -129 22z"/> <path d="M6223 3382 c-161 -159 -293 -294 -293 -300 0 -28 -32 -5 -131 96 -60 60 -109 119 -113 133 -13 58 -114 63 -154 9 -31 -41 -28 -71 11 -114 26 -28 41 -36 69 -36 30 0 45 -10 107 -70 39 -38 78 -70 86 -70 20 0 20 -46 -1 -62 -28 -22 -184 -170 -284 -269 -53 -52 -135 -130 -183 -173 -48 -44 -87 -83 -87 -88 0 -20 128 -115 206 -152 21 -10 46 -21 54 -25 33 -16 159 -50 225 -61 106 -18 297 -3 406 33 50 16 73 28 131 65 41 27 52 24 105 -27 12 -12 26 -21 31 -21 12 0 22 34 22 73 0 15 7 38 15 51 16 24 115 104 154 126 29 15 78 4 113 -26 24 -19 33 -21 60 -13 26 7 43 5 85 -13 61 -26 67 -45 27 -85 -41 -41 -114 -133 -114 -143 0 -24 49 -6 93 35 97 90 137 113 137 78 1 -37 59 -114 162 -213 113 -108 176 -147 208 -130 27 14 60 -31 60 -80 0 -45 60 -131 153 -220 31 -30 92 -90 135 -134 93 -95 147 -136 179 -136 12 0 23 -3 23 -6 0 -15 -29 -56 -87 -122 -59 -68 -77 -102 -53 -102 11 0 61 29 70 41 19 24 117 99 129 99 21 0 64 -133 59 -180 -3 -32 0 -35 25 -38 15 -2 27 -9 27 -15 -1 -19 -91 -129 -152 -184 -61 -55 -84 -71 -129 -83 -62 -18 -31 28 144 212 16 17 23 38 12 38 -7 0 -63 -38 -95 -66 -28 -24 -105 -54 -137 -54 -33 0 -38 34 -13 76 12 19 20 37 17 40 -7 8 -46 -14 -71 -40 -35 -36 -92 -76 -109 -76 -34 0 -17 46 44 119 34 40 59 75 55 78 -3 3 -24 -4 -46 -15 -70 -34 -102 -17 -255 138 -71 73 -141 143 -155 156 -14 13 -58 55 -98 94 -41 39 -82 75 -93 81 -10 5 -31 33 -45 61 -21 41 -25 59 -19 94 4 29 2 44 -4 44 -6 0 -11 -4 -11 -8 0 -10 -115 -92 -130 -92 -19 0 -10 42 20 85 40 59 39 72 -10 80 -28 5 -49 18 -75 46 -40 45 -44 72 -15 131 11 23 17 44 14 47 -4 3 -9 0 -11 -6 -3 -7 -9 -13 -13 -13 -5 0 -28 -18 -52 -40 -77 -72 -149 -89 -118 -29 13 25 107 139 124 151 23 16 -7 21 -33 5 -41 -24 -66 -21 -90 9 -25 32 -26 42 -6 64 19 21 31 80 16 80 -6 0 -11 -4 -11 -8 0 -4 -25 -21 -55 -37 -30 -17 -55 -35 -55 -41 0 -6 -20 -29 -44 -51 l-44 -40 206 -210 c114 -115 215 -213 225 -216 9 -4 17 -13 17 -21 0 -8 23 -34 50 -59 28 -25 50 -52 50 -60 0 -21 -68 -87 -90 -87 -10 0 -22 9 -25 20 -12 38 -54 22 -69 -25 -5 -17 0 -23 28 -33 41 -15 126 -105 126 -134 0 -15 5 -18 23 -13 12 4 31 15 41 25 19 19 19 19 -12 48 -33 31 -42 62 -19 62 16 0 40 38 32 50 -4 6 -3 14 0 20 7 11 85 -25 85 -39 0 -4 81 -91 181 -192 363 -370 479 -491 479 -500 0 -15 20 -10 47 11 33 25 39 25 47 -2 l7 -23 16 23 16 23 33 -32 32 -31 24 23 c13 13 30 35 40 49 l16 25 29 -32 c17 -18 32 -33 35 -33 11 0 148 145 148 157 0 7 -13 22 -30 35 -16 12 -30 24 -30 27 0 3 18 16 40 29 41 23 54 57 25 68 -9 4 -15 20 -15 43 0 20 -4 42 -9 50 -6 9 -5 21 1 31 9 13 -45 72 -312 343 -218 221 -334 331 -356 339 -40 14 -42 21 -11 41 13 9 39 32 58 51 37 40 68 46 87 16 19 -30 39 -24 68 20 15 22 32 40 39 40 7 0 24 -18 39 -40 14 -22 32 -40 40 -40 7 0 36 26 63 58 28 31 118 125 199 208 373 379 454 465 454 478 0 8 -7 19 -15 23 -8 5 -46 39 -84 76 -38 37 -72 67 -74 67 -3 0 -19 -24 -35 -52 -17 -29 -49 -73 -72 -97 l-40 -45 37 -36 c42 -40 70 -86 59 -97 -10 -10 -74 27 -101 59 -26 30 -48 29 -66 -4 -14 -26 -3 -35 21 -20 11 7 22 12 25 12 9 0 5 -49 -4 -54 -4 -3 -11 -19 -14 -36 -4 -18 -13 -30 -23 -30 -13 0 -15 -7 -9 -41 l7 -42 -34 7 c-30 5 -35 3 -44 -18 -9 -25 -70 -97 -183 -217 -48 -51 -75 -72 -112 -84 -86 -29 -155 1 -190 81 -18 42 -18 45 1 100 10 31 30 68 44 81 14 13 26 30 26 38 0 33 39 25 84 -16 19 -18 46 -26 46 -13 0 3 -14 26 -32 51 l-31 47 24 15 c13 8 51 42 84 76 l61 62 32 -15 c41 -20 51 -9 28 29 -15 26 -16 33 -5 40 8 5 16 9 19 9 3 0 25 18 49 40 75 69 121 82 121 34 0 -13 4 -24 8 -24 4 0 32 25 62 56 30 30 74 67 98 81 23 14 42 28 42 32 0 3 -35 44 -78 89 l-79 82 -33 -38 c-69 -76 -380 -402 -527 -551 -84 -85 -153 -160 -153 -167 0 -7 17 -21 38 -31 34 -19 56 -53 33 -53 -5 0 -26 -9 -45 -21 -31 -18 -34 -24 -25 -41 6 -11 19 -28 30 -39 23 -23 25 -49 4 -49 -9 0 -35 -18 -59 -40 -24 -22 -46 -40 -49 -40 -3 0 -24 24 -47 53 -23 28 -132 144 -243 258 -111 113 -216 222 -234 242 -17 20 -36 37 -41 37 -6 0 -20 -16 -32 -35 -15 -24 -29 -35 -46 -35 -13 0 -24 3 -24 8 0 4 -13 22 -30 40 -51 57 -54 67 -25 109 14 21 25 43 25 49 0 7 7 25 15 40 8 16 15 39 15 52 0 12 8 34 17 49 25 38 25 359 0 417 -9 21 -17 47 -17 57 0 24 -25 81 -83 190 -36 69 -89 131 -110 129 -1 0 -134 -130 -294 -288z m320 104 c14 -13 29 -37 33 -53 4 -15 13 -35 20 -43 7 -9 23 -65 36 -125 29 -138 24 -257 -15 -390 -64 -220 -62 -209 -47 -254 19 -58 7 -81 -99 -187 -43 -43 -85 -55 -127 -38 -27 11 -41 11 -85 -2 -30 -8 -65 -18 -79 -21 -14 -3 -34 -12 -45 -19 -54 -34 -272 -52 -399 -32 -109 17 -238 71 -268 113 -20 27 3 58 161 218 93 95 191 199 218 232 26 32 56 67 66 77 9 10 17 22 17 27 0 5 12 14 28 20 37 15 115 79 124 102 4 11 12 19 18 19 5 0 84 75 174 166 151 152 219 214 236 214 4 0 19 -11 33 -24z m1518 -2533 c-9 -17 -78 -83 -87 -83 -15 0 1 33 31 63 38 39 73 51 56 20z"/> <path d="M684 3287 c-12 -7 -14 -176 -14 -1210 0 -661 3 -1313 7 -1450 l6 -247 1335 2 1334 3 -1 160 c0 88 -1 162 -1 165 0 3 -587 3 -1305 2 -1090 -3 -1305 -2 -1305 10 -3 149 2 2493 5 2498 2 4 804 8 1782 9 1274 2 1781 5 1791 13 7 6 12 21 10 32 l-3 21 -1813 0 c-997 0 -1820 -4 -1828 -8z m569 -2671 c24 -24 31 -96 11 -117 -19 -21 -64 -25 -95 -9 -25 14 -27 100 -3 124 19 20 68 21 87 2z m722 -11 c0 -14 -8 -21 -30 -25 -36 -6 -44 -44 -10 -46 40 -2 45 -4 45 -19 0 -8 -11 -22 -25 -31 -32 -21 -74 -6 -98 35 -22 38 -22 44 9 81 23 27 32 31 68 28 33 -2 41 -7 41 -23z m840 -8 c4 -18 5 -49 3 -68 -2 -26 -8 -34 -23 -34 -17 0 -20 8 -23 47 -5 76 31 121 43 55z m-2011 6 c6 -14 8 -14 21 3 11 16 17 17 33 7 14 -8 23 -8 30 -1 6 6 18 8 27 4 13 -5 15 -15 9 -53 -3 -27 -11 -54 -16 -60 -16 -20 -46 -15 -53 8 -7 21 -7 21 -19 -2 -25 -52 -66 -10 -66 69 0 43 21 60 34 25z m945 -4 c23 -19 23 -20 5 -40 -17 -19 -18 -21 -1 -30 39 -22 7 -66 -33 -46 -19 9 -26 23 -31 54 -6 47 4 83 23 83 7 -1 24 -10 37 -21z m1271 -44 c0 -57 -2 -65 -19 -65 -24 0 -33 23 -25 69 9 54 12 61 29 61 12 0 15 -13 15 -65z m-293 43 c8 -11 10 -62 4 -111 -1 -5 -11 -7 -23 -5 -16 2 -24 11 -26 28 -2 14 -8 35 -14 47 -19 39 33 74 59 41z m387 -8 c6 -6 3 -17 -7 -28 -15 -16 -15 -20 -1 -33 15 -16 10 -49 -8 -49 -26 0 -46 23 -52 59 -9 56 0 74 33 66 14 -4 30 -10 35 -15z m-2056 -2 c15 -15 15 -47 0 -81 -17 -35 -43 -43 -73 -23 -55 36 -35 116 28 116 18 0 38 -5 45 -12z m342 -7 c5 -11 10 -33 10 -50 0 -58 -88 -73 -106 -19 -7 24 4 70 19 80 23 15 66 8 77 -11z m143 -13 l21 -28 -21 -27 c-24 -34 -67 -41 -94 -17 -31 28 -33 53 -8 80 31 33 75 29 102 -8z m101 20 c2 -7 8 -28 14 -46 13 -40 -6 -65 -46 -60 -22 3 -28 10 -35 46 -5 24 -6 50 -3 58 7 17 65 19 70 2z m458 -5 c36 -32 11 -103 -36 -103 -32 0 -66 28 -66 53 0 57 61 87 102 50z m136 8 c9 -5 12 -24 10 -52 -2 -36 -7 -44 -23 -44 -12 0 -21 9 -26 25 l-6 25 -4 -25 c-2 -14 -11 -26 -20 -28 -13 -2 -18 7 -21 40 -3 24 -1 49 5 56 11 14 65 16 85 3z m133 -1 c27 -15 28 -103 2 -98 -10 2 -21 16 -24 33 l-7 30 -1 -28 c-1 -30 -26 -46 -44 -28 -11 11 -12 76 -1 93 7 11 51 10 75 -2z m123 4 c10 -4 16 -18 16 -41 0 -45 -16 -73 -40 -73 -26 0 -60 34 -60 60 0 23 33 60 54 60 8 0 21 -3 30 -6z m134 -6 c14 -14 -2 -38 -27 -38 -10 -1 -6 -6 12 -16 47 -25 12 -67 -40 -48 -23 8 -29 16 -31 45 -2 24 3 42 13 53 19 19 56 21 73 4z m272 2 c40 25 57 -53 20 -90 -27 -27 -37 -25 -60 13 -31 50 -25 96 9 77 10 -5 23 -5 31 0z m340 -27 c0 -14 -10 -45 -22 -69 -16 -33 -27 -44 -44 -44 -20 0 -22 4 -18 33 4 19 -1 44 -10 61 -8 16 -13 33 -10 37 2 4 26 7 54 7 47 1 50 -1 50 -25z"/> <path d="M924 3121 c-2 -2 -4 -109 -4 -236 l0 -232 256 5 255 5 -3 -872 -3 -871 256 0 257 0 -2 871 -2 871 246 -3 245 -4 -1 233 0 233 -748 2 c-411 1 -750 0 -752 -2z m1391 -95 c21 -15 27 -52 27 -163 1 -111 -21 -123 -226 -123 -56 0 -116 -4 -135 -10 -45 -13 -107 -78 -120 -126 -8 -32 -15 -753 -13 -1457 1 -94 -2 -108 -18 -117 -10 -5 -80 -11 -155 -12 -114 -1 -138 1 -152 15 -15 14 -17 93 -19 797 -3 578 -7 786 -15 803 -19 35 -65 76 -103 92 -25 11 -74 15 -164 15 -169 0 -195 10 -212 79 -6 27 -8 60 -4 73 4 13 6 43 5 68 -3 84 -43 80 665 80 516 0 623 -2 639 -14z"/> <path d="M3646 3063 l-23 -12 -6 -1003 c-4 -552 -10 -1041 -13 -1088 -6 -78 -4 -87 15 -108 21 -22 25 -22 280 -22 240 0 261 1 282 19 l24 19 3 1084 c2 1047 2 1085 -16 1102 -17 14 -51 17 -271 19 -181 1 -259 -1 -275 -10z m459 -107 c12 -18 14 -173 12 -1013 -2 -920 -3 -994 -19 -1009 -20 -21 -61 -25 -226 -23 -115 1 -125 2 -149 25 l-26 24 0 197 c0 109 0 234 0 278 -1 316 10 1409 14 1445 1 8 -1 23 -5 32 -5 12 0 25 18 43 l26 26 170 -2 c163 -1 172 -2 185 -23z"/> <path d="M8061 2708 c-5 -13 -7 -25 -5 -27 7 -7 34 21 34 35 0 22 -20 16 -29 -8z"/> <path d="M7894 2468 c-16 -13 -48 -42 -71 -65 -23 -24 -47 -43 -52 -43 -6 0 -11 -6 -11 -12 0 -7 -32 -44 -71 -83 -39 -38 -75 -78 -80 -88 -11 -20 -4 -37 15 -37 12 0 196 184 196 196 0 4 13 19 28 33 30 28 92 105 92 115 0 12 -18 6 -46 -16z"/> <path d="M2635 2216 c-79 -12 -146 -30 -175 -47 -8 -5 -22 -12 -30 -15 -8 -3 -28 -12 -43 -20 -16 -7 -33 -14 -39 -14 -14 0 -94 -64 -136 -109 -39 -43 -92 -118 -92 -132 0 -5 -8 -22 -17 -36 -15 -23 -18 -50 -17 -173 0 -151 2 -159 57 -255 44 -76 147 -169 232 -208 175 -81 208 -88 495 -94 230 -5 242 -4 444 48 69 17 186 78 186 95 0 9 -13 38 -28 63 -15 25 -39 70 -52 99 -27 57 -39 62 -86 33 -17 -10 -46 -22 -65 -26 -19 -4 -38 -11 -44 -15 -37 -29 -370 -51 -465 -30 -89 20 -157 56 -217 116 -40 40 -58 53 -66 45 -18 -18 40 -128 79 -149 18 -9 53 -30 78 -45 77 -48 150 -61 341 -59 157 1 175 3 234 27 36 14 79 25 95 25 35 -1 66 -20 66 -42 0 -26 -172 -86 -270 -94 -115 -9 -406 -3 -480 10 -75 14 -102 23 -172 57 -10 5 -24 9 -31 9 -36 0 -197 146 -197 179 0 5 -9 26 -21 45 -16 27 -22 59 -26 143 -5 105 -5 110 27 186 25 58 46 91 86 129 67 64 100 84 229 135 69 28 72 28 300 28 196 0 235 -2 265 -17 19 -9 54 -23 77 -31 23 -8 56 -25 74 -38 57 -42 149 -142 155 -168 4 -14 13 -37 22 -51 11 -17 16 -50 17 -100 l0 -75 -40 -2 c-79 -5 -318 -2 -327 3 -5 3 3 15 17 26 14 10 25 25 25 32 0 7 15 26 34 43 32 27 34 33 27 66 -11 46 -93 153 -134 173 -18 9 -41 24 -52 34 -28 24 -86 35 -182 32 -130 -2 -223 -53 -297 -161 -49 -71 -57 -108 -28 -134 25 -23 32 -21 32 6 0 31 47 95 101 139 95 77 249 91 362 34 61 -32 127 -97 127 -127 0 -10 5 -21 11 -24 5 -4 8 -12 6 -18 -3 -9 -80 -12 -278 -13 -151 0 -282 -4 -291 -8 -11 -5 -18 -19 -18 -37 0 -23 5 -30 28 -35 67 -14 69 -18 22 -50 -24 -16 -45 -34 -47 -41 -8 -23 94 -28 542 -28 l450 0 3 60 c4 72 -12 180 -40 255 -32 92 -130 204 -222 257 -50 28 -110 53 -128 53 -11 0 -29 5 -41 12 -63 33 -300 46 -452 24z"/> <path d="M4805 2135 c-16 -8 -38 -14 -47 -15 -37 0 -186 -80 -245 -130 -55 -46 -143 -157 -143 -179 0 -5 -7 -22 -15 -37 -23 -44 -21 -283 3 -350 20 -58 72 -132 134 -190 45 -42 137 -104 156 -104 6 0 23 -6 39 -14 62 -31 105 -46 131 -46 15 0 52 -7 82 -15 79 -21 399 -21 500 1 131 27 211 52 308 96 35 16 42 25 42 48 0 15 -6 32 -13 38 -7 6 -30 45 -51 87 -31 62 -42 75 -61 75 -13 0 -26 -4 -29 -8 -6 -9 -141 -53 -219 -71 -75 -17 -355 -14 -408 4 -114 41 -189 95 -192 141 -2 28 -1 29 43 28 235 -5 942 -4 951 1 13 8 4 145 -16 240 -36 178 -200 334 -415 396 -67 19 -495 22 -535 4z m450 -80 c113 -11 249 -78 324 -160 33 -36 41 -52 41 -82 0 -30 5 -40 23 -48 19 -9 23 -19 27 -89 7 -107 9 -106 -195 -106 -159 0 -205 5 -205 20 0 5 15 14 34 20 19 6 51 29 70 50 33 37 35 43 29 87 -3 27 -9 53 -12 60 -13 26 -104 113 -117 113 -7 0 -18 9 -24 19 -20 38 -148 58 -267 42 -63 -8 -79 -15 -132 -55 -77 -59 -113 -104 -129 -160 -10 -33 -11 -49 -2 -65 12 -24 30 -28 30 -7 0 22 39 85 75 120 69 69 195 107 291 87 132 -26 244 -122 244 -209 0 -23 -2 -24 -37 -17 -21 4 -126 9 -233 12 -271 7 -357 -10 -322 -63 4 -6 31 -15 60 -19 59 -8 65 -25 13 -36 -88 -18 -133 -140 -73 -197 129 -122 123 -118 229 -136 106 -19 234 -21 353 -5 41 5 98 13 125 16 28 3 58 12 67 20 9 8 27 13 40 11 18 -2 23 -9 23 -33 0 -48 -53 -68 -280 -105 -85 -14 -250 -12 -385 4 -238 28 -390 110 -470 253 -29 50 -33 69 -39 161 -7 114 5 201 35 249 34 54 102 128 130 143 16 8 40 23 54 32 14 10 59 29 100 44 105 37 303 48 505 29z m-303 -477 c-9 -9 -15 -9 -24 0 -9 9 -7 12 12 12 19 0 21 -3 12 -12z"/> <path d="M7066 2064 c-8 -20 20 -54 44 -54 19 0 32 31 21 48 -3 6 -18 13 -32 17 -20 5 -28 2 -33 -11z"/> <path d="M6975 1953 c-44 -65 -28 -88 34 -49 50 32 55 40 39 66 -19 30 -44 24 -73 -17z"/> <path d="M6575 1532 c-6 -4 -21 -20 -34 -37 -21 -28 -415 -437 -593 -618 -43 -43 -78 -82 -78 -86 0 -5 11 -16 24 -24 45 -30 121 -100 138 -129 10 -15 24 -28 31 -28 14 0 98 -85 130 -130 12 -18 20 -21 34 -14 10 5 119 115 243 244 123 129 276 287 339 351 158 158 149 141 101 173 -22 14 -40 32 -40 39 0 20 -86 78 -104 71 -9 -3 -16 -9 -16 -13 0 -5 -18 -26 -89 -104 l-25 -28 41 -37 c36 -33 63 -70 63 -86 0 -3 -9 -6 -21 -6 -23 0 -99 59 -99 78 0 6 -4 12 -9 12 -11 0 -71 -61 -71 -72 0 -11 18 -10 25 2 3 6 15 10 25 10 56 0 28 -85 -44 -134 -19 -13 -19 -15 -3 -39 9 -15 17 -29 17 -33 0 -6 -35 -2 -70 7 -9 2 -14 -2 -12 -10 3 -12 -49 -83 -90 -124 -10 -10 -18 -24 -18 -33 0 -8 -11 -19 -24 -24 -14 -5 -35 -23 -48 -40 -12 -17 -36 -40 -53 -50 -28 -18 -33 -18 -78 -3 -30 10 -47 21 -47 32 0 9 30 48 66 86 87 93 184 211 184 224 0 22 -20 10 -74 -44 -30 -30 -58 -55 -63 -55 -4 1 -25 25 -46 56 -36 52 -40 74 -14 74 7 0 36 23 65 50 29 28 57 50 63 50 5 0 28 -9 51 -21 l41 -21 -26 45 c-33 56 -33 63 -2 71 13 3 29 15 35 25 5 11 30 29 55 41 25 12 50 31 56 41 13 25 45 24 52 -1 8 -30 19 -25 77 30 29 28 64 59 78 68 l24 19 -23 36 c-13 20 -31 37 -40 37 -9 0 -29 18 -44 40 -27 40 -40 47 -60 32z m-436 -626 c7 -8 27 -22 46 -31 19 -9 35 -20 35 -26 0 -14 -151 -159 -166 -159 -6 0 -14 12 -17 28 -3 15 -9 39 -13 55 -5 21 2 39 32 87 39 59 62 72 83 46z"/> <path d="M6508 1208 c-17 -27 -29 -58 -23 -58 9 0 65 60 65 70 0 18 -27 10 -42 -12z"/> <path d="M3472 710 c-4 -3 -7 -78 -7 -167 l0 -163 271 0 271 0 -1 167 -1 166 -263 1 c-145 1 -267 -1 -270 -4z m301 -105 c15 -3 38 -7 52 -10 13 -3 29 -15 36 -26 9 -17 7 -25 -11 -44 -23 -25 -90 -37 -213 -39 -69 -1 -80 10 -75 77 l3 42 69 2 c38 1 71 5 74 8 3 3 13 3 21 1 9 -3 28 -8 44 -11z"/> <path d="M4300 713 l-186 -3 0 -165 0 -165 219 2 220 3 -1 160 c-1 88 -1 163 -2 168 0 4 -15 6 -32 5 -18 -2 -116 -4 -218 -5z m88 -108 c34 -8 47 -32 40 -75 -4 -28 -57 -47 -133 -48 -67 0 -95 20 -95 70 0 52 22 67 94 63 33 -1 76 -6 94 -10z"/> <path d="M4670 712 c-13 -2 -15 -29 -15 -167 l0 -165 173 0 172 0 0 168 0 168 -157 0 c-87 -1 -165 -2 -173 -4z m181 -119 c24 -15 29 -23 24 -43 -7 -30 -49 -70 -74 -70 -38 0 -75 86 -50 116 16 19 65 17 100 -3z"/> <path d="M5182 713 l-83 -4 8 -57 c7 -49 7 -106 0 -237 l-2 -30 113 -3 112 -3 -2 168 -3 168 -30 1 c-16 0 -67 -1 -113 -3z"/> <path d="M5477 713 l-49 -4 9 -42 c9 -46 10 -165 3 -237 l-5 -45 83 -3 82 -3 0 171 0 170 -37 -2 c-21 -1 -60 -3 -86 -5z"/> <path d="M5705 710 c-4 -6 -7 -81 -7 -168 l0 -157 43 0 42 0 -1 160 c-1 88 -1 163 -2 168 0 11 -68 8 -75 -3z"/> </g> </svg> 